<svg width="58" height="58" viewBox="0 0 58 58" fill="none" xmlns="http://www.w3.org/2000/svg">
<circle cx="29" cy="29" r="29" fill="#6C63FF"/>
<path d="M18.6 26L18.2 24.8L18.6 22.8V11.84H22.2V20.06L22 22.8H22.4L25.98 22.6L27.4 22.4L29.16 24.72L28.18 26H18.6ZM34.9833 26.2C33.3566 26.2 32.0966 25.8133 31.2033 25.04C30.3099 24.2667 29.8633 23.0133 29.8633 21.28C29.8633 19.5333 30.3099 18.28 31.2033 17.52C32.0966 16.7467 33.3566 16.36 34.9833 16.36C36.6499 16.36 37.9099 16.7467 38.7633 17.52C39.6299 18.28 40.0633 19.5333 40.0633 21.28C40.0633 23.0133 39.6299 24.2667 38.7633 25.04C37.9099 25.8133 36.6499 26.2 34.9833 26.2ZM34.9833 23.6C35.5299 23.6 35.9099 23.4 36.1233 23C36.3366 22.5867 36.4433 22.0133 36.4433 21.28C36.4433 20.5333 36.3366 19.96 36.1233 19.56C35.9099 19.16 35.5299 18.96 34.9833 18.96C34.4233 18.96 34.0299 19.16 33.8033 19.56C33.5899 19.96 33.4833 20.5333 33.4833 21.28C33.4833 22.0133 33.5899 22.5867 33.8033 23C34.0299 23.4 34.4233 23.6 34.9833 23.6ZM22.12 48.86C21.7867 48.86 21.4067 48.8467 20.98 48.82C20.5533 48.8067 20.2067 48.7867 19.94 48.76L17.5 47.58L18.5 44.98L21.64 46C23.4133 46 24.3 45.26 24.3 43.78V43.4L24.1 43.3C23.9133 43.4867 23.6133 43.68 23.2 43.88C22.8 44.0667 22.1667 44.16 21.3 44.16C20.6733 44.16 20.0667 44.0067 19.48 43.7C18.8933 43.38 18.4133 42.8733 18.04 42.18C17.68 41.4867 17.5 40.5867 17.5 39.48C17.5 38.24 17.6867 37.2467 18.06 36.5C18.4333 35.74 18.9067 35.1867 19.48 34.84C20.0667 34.4933 20.6733 34.32 21.3 34.32C21.9933 34.32 22.56 34.42 23 34.62C23.4533 34.82 23.7533 35.0133 23.9 35.2V34.54H27.52L27.72 35.74L27.5 36.94L27.52 43.98C27.52 45.1267 27.2933 46.06 26.84 46.78C26.4 47.5 25.7733 48.0267 24.96 48.36C24.16 48.6933 23.2133 48.86 22.12 48.86ZM22.8 41.34C23.04 41.34 23.26 41.3067 23.46 41.24C23.66 41.1733 23.8067 41.1133 23.9 41.06V37.32C23.8467 37.28 23.7467 37.24 23.6 37.2C23.4533 37.16 23.2533 37.14 23 37.14C22.48 37.14 22.0667 37.3067 21.76 37.64C21.4533 37.9733 21.3 38.5133 21.3 39.26C21.3 39.9933 21.4467 40.5267 21.74 40.86C22.0333 41.18 22.3867 41.34 22.8 41.34ZM34.1434 44.2C32.5168 44.2 31.2568 43.8133 30.3634 43.04C29.4701 42.2667 29.0234 41.0133 29.0234 39.28C29.0234 37.5333 29.4701 36.28 30.3634 35.52C31.2568 34.7467 32.5168 34.36 34.1434 34.36C35.8101 34.36 37.0701 34.7467 37.9234 35.52C38.7901 36.28 39.2234 37.5333 39.2234 39.28C39.2234 41.0133 38.7901 42.2667 37.9234 43.04C37.0701 43.8133 35.8101 44.2 34.1434 44.2ZM34.1434 41.6C34.6901 41.6 35.0701 41.4 35.2834 41C35.4968 40.5867 35.6034 40.0133 35.6034 39.28C35.6034 38.5333 35.4968 37.96 35.2834 37.56C35.0701 37.16 34.6901 36.96 34.1434 36.96C33.5834 36.96 33.1901 37.16 32.9634 37.56C32.7501 37.96 32.6434 38.5333 32.6434 39.28C32.6434 40.0133 32.7501 40.5867 32.9634 41C33.1901 41.4 33.5834 41.6 34.1434 41.6Z" fill="white"/>
</svg>
