<svg width="40" height="41" viewBox="0 0 40 41" fill="none" xmlns="http://www.w3.org/2000/svg">
<path d="M20 40.5C8.954 40.5 0 31.546 0 20.5C0 9.454 8.954 0.5 20 0.5C31.046 0.5 40 9.454 40 20.5C40 31.546 31.046 40.5 20 40.5ZM13.78 22.84L13.806 22.826L15.546 28.566C15.77 29.188 16.078 29.3 16.452 29.248C16.828 29.198 17.026 28.996 17.272 28.76L19.648 26.464L24.748 30.24C25.68 30.754 26.35 30.488 26.582 29.376L29.896 13.732C30.262 12.276 29.622 11.692 28.492 12.156L9.026 19.676C7.698 20.208 7.706 20.952 8.786 21.282L13.78 22.84Z" fill="#565656"/>
</svg>
